<?xml version="1.0" encoding="UTF-8"?>
<svg id="Layer_2" data-name="Layer 2" xmlns="http://www.w3.org/2000/svg" viewBox="0 0 548.41 500.7">
  <g id="Layer_1-2" data-name="Layer 1">
    <path d="m122.26,206.2c35.16,14.84,73.26,38.67,70.72,94.92-1.05,23.27-1.69,46.81.91,69.83.62,5.54,14.87,9.55,22.84,14.26,2.3-4.06,6.55-8.11,6.59-12.19.46-45.31,1.13-90.65-.67-135.89-.28-6.92-11.95-14.6-19.78-19.79-37.18-24.63-74.83-48.52-112.36-72.62-1.88-1.2-4.09-1.88-6.15-2.8-.45,2.18-1.3,4.36-1.31,6.54-.12,77.46-.17,154.92-.22,232.38,0,1.78,0,3.56,0,6.68-31.09-24.18-73.88-37.1-80.09-81.43-4.67-33.35-1.63-67.84-1.38-101.82C1.85,138.21-.62,71.92.15,5.84c.01-1.1-.2-4.37,0-5.84,36.35,22.87,76.16,48.04,112.28,70.5,29.55,18.37,59.44,36.2,89.03,54.52,35.68,22.08,56.01,55.91,71,93.75.5,1.26,1.73,2.23,2.62,3.33,1.12-1.06,2.89-1.93,3.26-3.2,19.27-67.12,74.26-98.74,128.94-131.29,46.19-27.49,91.36-56.7,140.91-87.6,0,19.55,0,37.08,0,54.62-.03,77.96-.67,155.93.2,233.88.37,33.23-16.15,54.84-41.84,72.02-13.16,8.8-26.27,17.67-40.37,27.17v-246.46c-23.43,14.84-45.3,28.78-67.26,42.59-23.1,14.53-46.42,28.73-69.23,43.69-2.5,1.64-3.25,7.36-3.26,11.19-.23,44.81-.27,89.62.02,134.43.02,3.66,2.84,7.3,4.36,10.95,8.72-4.27,24.53-7.87,25-12.91,3.06-32.68,1.47-65.78,4.01-98.55,2.11-27.21,39.77-62.13,68.77-66.04,0,22.52.04,44.87,0,67.23-.09,43.64.79,87.33-1.37,130.86-.36,7.33-13.23,15.03-21.53,20.81-31.27,21.79-62.82,43.21-94.7,64.09-30.17,19.76-57.89,10.76-84.88-8.21-33.25-23.37-67.06-45.96-100.54-69.03-1.56-1.07-3.17-3.44-3.17-5.21-.16-66.77-.14-133.53-.14-200.94Z"/>
  </g>
</svg>